<svg width="256" height="256" viewBox="0 0 256 256" fill="none" xmlns="http://www.w3.org/2000/svg">
<path d="M256 128C256 198.676 198.676 256 128 256C102.4 256 78.509 248.487 58.5346 235.492C23.2857 212.704 0 173.076 0 128C0 57.3241 57.2885 0 128 0C188.066 0 238.447 41.373 252.261 97.1661C254.683 107.064 256 117.39 256 128Z" fill="#47C2FF"/>
<path d="M128 248.346C61.6322 248.346 7.65503 194.369 7.65503 128.001C7.65503 61.6334 61.6322 7.65622 128 7.65622C194.368 7.65622 248.345 61.6334 248.345 128.001C248.345 194.369 194.332 248.346 128 248.346ZM128 13.2462C64.7299 13.2462 13.245 64.731 13.245 128.001C13.245 191.271 64.7299 242.756 128 242.756C191.27 242.756 242.755 191.271 242.755 128.001C242.755 64.731 191.27 13.2462 128 13.2462Z" fill="white"/>
<path d="M248.345 128.001C248.345 193.158 196.291 246.387 131.596 248.274C130.386 248.31 129.211 248.346 128 248.346C104.181 248.346 81.9631 241.403 63.2704 229.404C65.2999 228.478 67.2938 227.517 69.1809 226.52C114.257 202.949 126.541 157.054 164.424 121.841C180.838 106.602 202.984 92.5025 233.569 83.0315C235.349 82.4974 237.13 81.9634 238.946 81.4649C244.678 95.1372 247.989 110.056 248.274 125.722C248.31 126.47 248.345 127.253 248.345 128.001Z" fill="white"/>
<path d="M54.2268 172.008C54.0488 172.008 53.9063 171.937 53.7995 171.794C53.6215 171.545 53.6571 171.189 53.8707 171.011L65.834 161.184C66.0833 160.97 66.4393 161.041 66.6173 161.255C66.7954 161.504 66.7598 161.86 66.5461 162.038L54.5828 171.865C54.476 171.972 54.3692 172.008 54.2268 172.008Z" fill="white"/>
<path d="M58.428 207.791C58.25 207.791 58.1075 207.719 58.0007 207.577C57.8227 207.328 57.8227 206.972 58.0719 206.794L86.0931 183.828C86.3423 183.65 86.6984 183.686 86.8764 183.9C87.0544 184.149 87.0544 184.505 86.8052 184.683L58.7484 207.684C58.6772 207.755 58.5348 207.791 58.428 207.791Z" fill="white"/>
<path d="M102.08 183.901C105.187 183.901 107.706 181.383 107.706 178.276C107.706 175.169 105.187 172.65 102.08 172.65C98.973 172.65 96.4543 175.169 96.4543 178.276C96.4543 181.383 98.973 183.901 102.08 183.901Z" fill="white"/>
<path d="M128.463 168.375C155.344 168.375 177.135 146.584 177.135 119.703C177.135 92.8225 155.344 71.0313 128.463 71.0313C101.582 71.0313 79.7909 92.8225 79.7909 119.703C79.7909 146.584 101.582 168.375 128.463 168.375Z" fill="#B5D1EE"/>
<path d="M124.546 164.282C151.427 164.282 173.218 142.49 173.218 115.61C173.218 88.7288 151.427 66.9376 124.546 66.9376C97.6654 66.9376 75.8741 88.7288 75.8741 115.61C75.8741 142.49 97.6654 164.282 124.546 164.282Z" fill="white"/>
<path d="M23.9623 179.092C23.4638 179.092 23.0009 178.879 22.6805 178.487C22.1108 177.775 22.2176 176.707 22.9297 176.137L62.2733 143.843C62.9854 143.274 64.0535 143.381 64.6232 144.093C65.1929 144.805 65.0861 145.873 64.374 146.443L24.9948 178.701C24.6744 178.986 24.3183 179.092 23.9623 179.092Z" fill="white"/>
<path d="M40.9459 204.694C40.4474 204.694 39.9846 204.48 39.6641 204.089C39.0944 203.377 39.2013 202.308 39.9134 201.739L73.9518 173.824C74.6639 173.255 75.732 173.361 76.3017 174.074C76.8714 174.786 76.7646 175.854 76.0525 176.424L42.0141 204.302C41.6936 204.551 41.3376 204.694 40.9459 204.694Z" fill="white"/>
<path d="M185.021 180.144C193.049 172.817 198.605 165.933 197.43 164.767C196.255 163.602 188.794 168.597 180.765 175.923C172.737 183.25 167.181 190.134 168.356 191.299C169.531 192.465 176.992 187.47 185.021 180.144Z" fill="#B5D1EE"/>
</svg>
