<svg width="472" height="114" viewBox="0 0 472 114" fill="none" xmlns="http://www.w3.org/2000/svg">
<g clip-path="url(#clip0_1661_1954)">
<g clip-path="url(#clip1_1661_1954)">
<path d="M116.348 56.9038C116.348 88.3235 90.295 113.808 58.1739 113.808C46.5392 113.808 35.6811 110.468 26.603 104.69C10.583 94.56 0 76.9428 0 56.9038C0 25.484 26.0367 0 58.1739 0C85.4728 0 108.37 18.3928 114.649 43.1962C115.749 47.5966 116.348 52.1868 116.348 56.9038Z" fill="#47C2FF"/>
<path d="M58.1738 110.404C28.0108 110.404 3.479 86.4082 3.479 56.9037C3.479 27.3992 28.0108 3.40308 58.1738 3.40308C88.3369 3.40308 112.869 27.3992 112.869 56.9037C112.869 86.4082 88.3207 110.404 58.1738 110.404ZM58.1738 5.88816C29.4186 5.88816 6.01956 28.7763 6.01956 56.9037C6.01956 85.0311 29.4186 107.919 58.1738 107.919C86.9291 107.919 110.328 85.0311 110.328 56.9037C110.328 28.7763 86.9291 5.88816 58.1738 5.88816Z" fill="white"/>
<path d="M112.869 56.9038C112.869 85.8701 89.2107 109.534 59.8082 110.373C59.258 110.389 58.724 110.404 58.1738 110.404C47.3481 110.404 37.2506 107.318 28.7551 101.984C29.6775 101.572 30.5837 101.145 31.4413 100.701C51.9276 90.223 57.5104 69.8199 74.7279 54.1654C82.1878 47.3908 92.2529 41.1227 106.153 36.9123C106.962 36.6748 107.771 36.4374 108.597 36.2158C111.202 42.294 112.707 48.9262 112.836 55.8908C112.852 56.2232 112.869 56.5714 112.869 56.9038Z" fill="white"/>
<path d="M24.6452 76.4679C24.5642 76.4679 24.4995 76.4362 24.451 76.3729C24.3701 76.2621 24.3862 76.1038 24.4833 76.0247L29.9205 71.656C30.0337 71.561 30.1955 71.5927 30.2765 71.6876C30.3574 71.7984 30.3412 71.9567 30.2441 72.0359L24.807 76.4046C24.7584 76.452 24.7099 76.4679 24.6452 76.4679Z" fill="white"/>
<path d="M26.5546 92.3757C26.4736 92.3757 26.4089 92.344 26.3604 92.2807C26.2795 92.1699 26.2795 92.0116 26.3927 91.9325L39.1279 81.723C39.2412 81.6439 39.403 81.6597 39.4839 81.7547C39.5648 81.8655 39.5648 82.0238 39.4515 82.1029L26.7002 92.3282C26.6678 92.3599 26.6031 92.3757 26.5546 92.3757Z" fill="white"/>
<path d="M46.3934 81.7548C47.8055 81.7548 48.9502 80.6351 48.9502 79.2538C48.9502 77.8726 47.8055 76.7529 46.3934 76.7529C44.9814 76.7529 43.8367 77.8726 43.8367 79.2538C43.8367 80.6351 44.9814 81.7548 46.3934 81.7548Z" fill="white"/>
<path d="M58.3843 74.8535C70.6012 74.8535 80.505 65.166 80.505 53.2158C80.505 41.2656 70.6012 31.5781 58.3843 31.5781C46.1674 31.5781 36.2637 41.2656 36.2637 53.2158C36.2637 65.166 46.1674 74.8535 58.3843 74.8535Z" fill="#B5D1EE"/>
<path d="M56.6043 73.0332C68.8212 73.0332 78.725 63.3456 78.725 51.3955C78.725 39.4453 68.8212 29.7578 56.6043 29.7578C44.3874 29.7578 34.4836 39.4453 34.4836 51.3955C34.4836 63.3456 44.3874 73.0332 56.6043 73.0332Z" fill="white"/>
<path d="M10.8904 79.6178C10.6639 79.6178 10.4535 79.5229 10.3079 79.3488C10.049 79.0322 10.0975 78.5573 10.4211 78.3041L28.3021 63.9476C28.6258 63.6943 29.1112 63.7418 29.3702 64.0584C29.6291 64.3749 29.5805 64.8498 29.2569 65.103L11.3597 79.4437C11.2141 79.5704 11.0522 79.6178 10.8904 79.6178Z" fill="white"/>
<path d="M18.6092 90.9986C18.3826 90.9986 18.1723 90.9036 18.0266 90.7295C17.7677 90.4129 17.8163 89.9381 18.1399 89.6848L33.6098 77.2752C33.9334 77.0219 34.4189 77.0694 34.6778 77.386C34.9367 77.7026 34.8882 78.1774 34.5645 78.4307L19.0946 90.8245C18.949 90.9353 18.7872 90.9986 18.6092 90.9986Z" fill="white"/>
<path d="M84.089 80.0843C87.7379 76.8272 90.2629 73.7668 89.7288 73.2487C89.1947 72.7306 85.8038 74.9511 82.1549 78.2082C78.5061 81.4653 75.9811 84.5257 76.5152 85.0438C77.0492 85.5618 80.4402 83.3414 84.089 80.0843Z" fill="#B5D1EE"/>
</g>
</g>
<path d="M147.138 74.8043C145.85 73.219 145.206 71.9061 145.206 70.8658C145.206 69.3795 146.271 67.596 148.401 65.5153C149.64 64.3263 150.878 63.7318 152.117 63.7318C153.653 63.7318 155.535 64.8465 157.764 67.0758L158.136 67.4474C158.334 67.6951 158.631 68.0171 159.028 68.4135C159.424 68.8098 160.192 69.3548 161.331 70.0483C162.471 70.6924 163.586 71.0144 164.676 71.0144C169.283 71.0144 171.587 69.1318 171.587 65.3667C171.587 64.2272 170.943 63.2859 169.654 62.5428C168.416 61.7501 166.855 61.1804 164.973 60.8336C163.09 60.4868 161.059 59.9419 158.879 59.1987C156.699 58.4061 154.668 57.4895 152.786 56.4492C150.903 55.4088 149.318 53.7739 148.03 51.5446C146.791 49.2657 146.172 46.5409 146.172 43.3702C146.172 39.0105 147.782 35.2206 151.002 32.0004C154.272 28.7307 158.706 27.0958 164.304 27.0958C167.276 27.0958 169.976 27.4921 172.404 28.2848C174.881 29.0279 176.59 29.7958 177.532 30.5885L179.018 31.7032L179.389 32.0004C180.925 33.4371 181.693 34.6261 181.693 35.5674C181.693 36.6078 181.099 37.9949 179.91 39.7289C178.225 42.206 176.491 43.4445 174.708 43.4445C173.667 43.4445 172.379 42.9491 170.843 41.9583C170.695 41.8592 170.398 41.6115 169.952 41.2151C169.555 40.8188 169.184 40.5216 168.837 40.3234C168.49 40.0757 167.896 39.8528 167.054 39.6546C166.261 39.4069 165.32 39.283 164.23 39.283C163.041 39.283 161.901 39.6794 160.811 40.472C159.771 41.2151 159.251 42.206 159.251 43.4445C159.251 44.9308 159.87 46.095 161.109 46.9372C162.397 47.7794 163.982 48.3491 165.865 48.6464C167.747 48.9436 169.803 49.4143 172.032 50.0583C174.262 50.6528 176.318 51.3959 178.2 52.2877C180.083 53.1794 181.644 54.74 182.882 56.9694C184.17 59.1492 184.814 61.874 184.814 65.1437C184.814 68.3144 184.17 71.1382 182.882 73.6153C181.594 76.0429 179.91 77.9254 177.829 79.2631C175.798 80.6007 173.692 81.5915 171.512 82.2356C169.332 82.8796 167.153 83.2016 164.973 83.2016C162.644 83.2016 160.44 82.9291 158.359 82.3842C156.278 81.7897 154.569 81.0961 153.231 80.3034C151.943 79.4612 150.804 78.619 149.813 77.7768C148.872 76.9346 148.203 76.2163 147.807 75.6218L147.138 74.8043ZM211.419 43.2959C216.373 43.2959 220.485 45.2032 223.754 49.0179C227.074 52.7831 228.733 57.3905 228.733 62.84V75.919C228.733 77.0585 228.684 77.9254 228.585 78.5199C228.535 79.0649 228.312 79.7089 227.916 80.4521C227.569 81.1456 226.925 81.6411 225.984 81.9383C225.043 82.2356 223.779 82.3842 222.194 82.3842C220.906 82.3842 219.841 82.2603 218.998 82.0126C218.156 81.7649 217.512 81.4924 217.066 81.1952C216.62 80.8484 216.274 80.3282 216.026 79.6346C215.828 78.941 215.704 78.3713 215.654 77.9254C215.654 77.4796 215.654 76.786 215.654 75.8447V62.7657C215.654 60.7345 215.06 59.1492 213.871 58.0097C212.731 56.8703 211.171 56.3006 209.189 56.3006C207.257 56.3006 205.672 56.895 204.433 58.084C203.244 59.273 202.65 60.8336 202.65 62.7657V75.919C202.65 77.0585 202.6 77.9254 202.501 78.5199C202.452 79.0649 202.229 79.7089 201.832 80.4521C201.486 81.1456 200.841 81.6411 199.9 81.9383C198.959 82.2356 197.696 82.3842 196.11 82.3842C194.574 82.3842 193.336 82.2356 192.395 81.9383C191.453 81.6411 190.785 81.1209 190.388 80.3778C190.041 79.6346 189.818 78.9906 189.719 78.4456C189.67 77.8511 189.645 76.9842 189.645 75.8447V49.5381C189.645 48.4482 189.67 47.6308 189.719 47.0858C189.818 46.4913 190.066 45.8473 190.463 45.1537C190.859 44.4601 191.528 43.9895 192.469 43.7418C193.41 43.4445 194.649 43.2959 196.185 43.2959C197.671 43.2959 198.885 43.4445 199.826 43.7418C200.767 44.039 201.411 44.4849 201.758 45.0794C202.105 45.6243 202.303 46.095 202.352 46.4913C202.452 46.8877 202.501 47.4078 202.501 48.0519C202.6 47.9033 202.724 47.7299 202.873 47.5317C203.071 47.3335 203.442 46.962 203.987 46.417C204.582 45.8721 205.201 45.4014 205.845 45.0051C206.489 44.5592 207.307 44.1629 208.297 43.8161C209.338 43.4693 210.378 43.2959 211.419 43.2959ZM253.958 42.4041C259.408 42.4041 264.189 44.3363 268.301 48.2005C272.413 52.0152 274.469 56.8951 274.469 62.84C274.469 66.952 273.403 70.6181 271.273 73.8383C269.143 77.0089 266.542 79.3621 263.47 80.8979C260.448 82.3842 257.327 83.1273 254.107 83.1273C250.788 83.1273 247.592 82.3346 244.521 80.7493C241.449 79.1144 238.848 76.7364 236.718 73.6153C234.637 70.4447 233.597 66.8777 233.597 62.9143C233.597 56.9694 235.678 52.0647 239.839 48.2005C244 44.3363 248.707 42.4041 253.958 42.4041ZM249.128 68.2648C250.713 69.4538 252.323 70.0483 253.958 70.0483C255.593 70.0483 257.228 69.4291 258.863 68.1905C260.498 66.952 261.315 65.1189 261.315 62.6914C261.315 60.2639 260.547 58.4556 259.012 57.2666C257.476 56.0776 255.767 55.4831 253.884 55.4831C252.2 55.4831 250.59 56.1024 249.054 57.3409C247.518 58.5795 246.75 60.3877 246.75 62.7657C246.75 65.1933 247.543 67.0263 249.128 68.2648ZM327.905 43.5931C331.076 44.9803 332.661 46.6895 332.661 48.7207C332.661 49.5629 332.438 50.4794 331.992 51.4702C330.853 54.195 330.01 56.251 329.465 57.6382L321.291 77.5539C321.242 77.7025 321.167 77.9007 321.068 78.1484C321.019 78.3465 320.82 78.7429 320.474 79.3374C320.127 79.9319 319.731 80.4521 319.285 80.8979C318.888 81.3438 318.319 81.7649 317.576 82.1612C316.832 82.508 316.015 82.6814 315.123 82.6814C313.736 82.6814 312.498 82.2603 311.408 81.4181C310.367 80.5264 309.674 79.6346 309.327 78.7429L308.732 77.4796C308.435 76.7364 307.667 74.73 306.429 71.4603C305.19 68.141 304.497 66.2832 304.348 65.8868C303.853 67.0758 303.109 69.0327 302.119 71.7575C301.177 74.4328 300.459 76.3649 299.963 77.5539C299.914 77.7025 299.84 77.9007 299.741 78.1484C299.691 78.3465 299.493 78.7429 299.146 79.3374C298.799 79.9319 298.403 80.4521 297.957 80.8979C297.511 81.3438 296.892 81.7649 296.099 82.1612C295.356 82.508 294.539 82.6814 293.647 82.6814C292.26 82.6814 291.046 82.2603 290.006 81.4181C288.965 80.5264 288.272 79.6346 287.925 78.7429L287.33 77.4796L276.704 51.3959C276.208 49.9097 275.961 48.9436 275.961 48.4978C275.961 46.5161 277.373 44.9555 280.196 43.8161C281.782 43.172 283.119 42.85 284.209 42.85C285.101 42.85 285.844 43.073 286.439 43.5188C287.083 43.9152 287.529 44.3363 287.776 44.7821C288.024 45.1785 288.296 45.7234 288.594 46.417C288.643 46.5656 289.436 48.7455 290.972 52.9565C292.557 57.118 293.449 59.4712 293.647 60.0162L298.031 47.9776C298.081 47.8289 298.155 47.6555 298.254 47.4574C298.353 47.2592 298.576 46.8877 298.923 46.3427C299.319 45.7977 299.716 45.3271 300.112 44.9308C300.558 44.4849 301.152 44.0886 301.896 43.7418C302.639 43.395 303.407 43.2216 304.199 43.2216C305.586 43.2216 306.8 43.6179 307.841 44.4106C308.931 45.2032 309.674 45.9959 310.07 46.7886L310.664 48.0519C313.142 54.9877 314.603 58.951 315.049 59.9419L319.582 47.606C320.771 44.4353 322.554 42.85 324.932 42.85C325.874 42.85 326.865 43.0977 327.905 43.5931ZM358.222 43.3702C362.631 43.3702 366.669 45.3271 370.335 49.2409C374.051 53.1547 375.908 57.6382 375.908 62.6914C375.908 67.9924 374.075 72.5997 370.409 76.5135C366.743 80.3778 362.681 82.3099 358.222 82.3099C354.259 82.3099 351.385 81.1209 349.602 78.7429C349.205 81.1704 347.075 82.3842 343.211 82.3842C341.675 82.3842 340.437 82.2356 339.495 81.9383C338.554 81.6411 337.885 81.1209 337.489 80.3778C337.142 79.6346 336.919 78.9906 336.82 78.4456C336.771 77.8511 336.746 76.9842 336.746 75.8447V31.4802C336.746 30.3408 336.771 29.4986 336.82 28.9536C336.919 28.3591 337.142 27.7151 337.489 27.0215C337.885 26.2784 338.554 25.7582 339.495 25.4609C340.437 25.1637 341.7 25.0151 343.285 25.0151C344.821 25.0151 346.06 25.1637 347.001 25.4609C347.942 25.7582 348.586 26.2784 348.933 27.0215C349.329 27.7646 349.552 28.4334 349.602 29.0279C349.701 29.5729 349.75 30.4151 349.75 31.5545V47.0115C351.732 44.584 354.556 43.3702 358.222 43.3702ZM351.683 67.3731C352.921 68.7107 354.457 69.3795 356.29 69.3795C358.123 69.3795 359.684 68.7107 360.972 67.3731C362.26 66.0355 362.904 64.5492 362.904 62.9143C362.904 61.2795 362.309 59.7932 361.12 58.4556C359.931 57.0684 358.346 56.3749 356.364 56.3749C354.383 56.3749 352.797 57.0684 351.608 58.4556C350.469 59.8428 349.899 61.329 349.899 62.9143C349.899 64.5492 350.494 66.0355 351.683 67.3731ZM412.604 43.2959C414.139 43.2959 415.378 43.4445 416.319 43.7418C417.26 44.039 417.905 44.5592 418.251 45.3023C418.648 46.0454 418.871 46.7143 418.92 47.3088C419.019 47.8537 419.069 48.6959 419.069 49.8354V75.8447C419.069 76.9842 419.019 77.8511 418.92 78.4456C418.871 78.9906 418.648 79.6346 418.251 80.3778C417.905 81.0713 417.26 81.5667 416.319 81.864C415.378 82.1612 414.115 82.3099 412.529 82.3099C410.3 82.3099 408.715 81.9879 407.773 81.3438C406.882 80.6502 406.361 79.6594 406.213 78.3713C404.38 80.997 401.407 82.3099 397.295 82.3099C392.836 82.3099 388.774 80.353 385.108 76.4392C381.442 72.5254 379.609 67.9428 379.609 62.6914C379.609 57.5886 381.442 53.1051 385.108 49.2409C388.824 45.3271 392.886 43.3702 397.295 43.3702C398.98 43.3702 400.515 43.6675 401.903 44.262C403.29 44.8565 404.256 45.4262 404.801 45.9711C405.346 46.4666 405.792 46.962 406.138 47.4574C406.287 46.0702 406.807 45.0298 407.699 44.3363C408.64 43.6427 410.275 43.2959 412.604 43.2959ZM399.302 69.3052C401.085 69.3052 402.571 68.6364 403.76 67.2988C404.999 65.9612 405.618 64.4749 405.618 62.84C405.618 61.2547 405.024 59.7685 403.835 58.3813C402.695 56.9941 401.135 56.3006 399.153 56.3006C397.221 56.3006 395.636 56.9941 394.397 58.3813C393.208 59.7685 392.614 61.2795 392.614 62.9143C392.614 64.5492 393.258 66.0355 394.546 67.3731C395.834 68.6612 397.419 69.3052 399.302 69.3052ZM438.665 69.3052C440.3 69.3052 441.514 69.7263 442.306 70.5685C443.099 71.4107 443.495 73.1695 443.495 75.8447C443.495 78.4209 443.074 80.1548 442.232 81.0466C441.39 81.8888 440.176 82.3099 438.591 82.3099C433.587 82.3099 430.07 81.1209 428.038 78.7429C426.007 76.3153 424.992 72.3025 424.992 66.7043V31.2573C424.992 30.1178 425.016 29.2756 425.066 28.7307C425.165 28.1362 425.388 27.4921 425.735 26.7986C426.131 26.0554 426.8 25.5352 427.741 25.238C428.683 24.9407 429.946 24.7921 431.531 24.7921C433.067 24.7921 434.281 24.9655 435.172 25.3123C436.114 25.6096 436.783 26.1297 437.179 26.8729C437.575 27.5664 437.798 28.2105 437.848 28.805C437.947 29.3499 437.996 30.1921 437.996 31.3316V67.0015C437.996 68.5373 438.219 69.3052 438.665 69.3052ZM460.959 69.3052C463.089 69.3052 464.699 69.7263 465.789 70.5685C466.879 71.4107 467.424 73.1695 467.424 75.8447C467.424 78.4209 466.83 80.1548 465.641 81.0466C464.501 81.8888 462.891 82.3099 460.81 82.3099C450.307 82.3099 445.056 77.108 445.056 66.7043L444.982 31.2573C444.982 30.1178 445.006 29.2756 445.056 28.7307C445.155 28.1362 445.403 27.4921 445.799 26.7986C446.195 26.0554 446.864 25.5352 447.806 25.238C448.747 24.9407 450.01 24.7921 451.595 24.7921C453.131 24.7921 454.345 24.9655 455.237 25.3123C456.178 25.6096 456.822 26.1297 457.169 26.8729C457.565 27.5664 457.813 28.2105 457.912 28.805C458.011 29.3995 458.061 30.2417 458.061 31.3316V67.0015C458.061 67.9428 458.259 68.5621 458.655 68.8593C459.051 69.1566 459.819 69.3052 460.959 69.3052Z" fill="white"/>
<defs>
<clipPath id="clip0_1661_1954">
<rect width="116.348" height="113.808" fill="white"/>
</clipPath>
<clipPath id="clip1_1661_1954">
<rect width="116.348" height="113.808" fill="white"/>
</clipPath>
</defs>
</svg>
